<svg width="40" height="40" xmlns="http://www.w3.org/2000/svg">

 <g>
  <title>background</title>
  <rect fill="none" id="canvas_background" height="402" width="582" y="-1" x="-1"/>
 </g>
 <g>
  <title>Layer 1</title>
  <path id="svg_1" d="m1,3.08l0,2l7,0l0,28.000002l-7,0l0,2l9,0l0,-32.000002l-9,0z" fill="#575656"/>
  <path id="svg_2" d="m11,3l0,32l18,0l0,-32l-18,0zm2,30l0,-28l14,0l0,28l-14,0z" fill="#575656"/>
  <path id="svg_3" d="m39,5l0,-2l-9,0l0,32l9,0l0,-2l-7,0l0,-28l7,0z" fill="#575656"/>
  <polygon id="svg_4" points="39,19 39,20 38,20 38,21 37,21 37,22 35,22 35,21 36,21 36,20 37,20 37,19 36,19 36,18 35,18 35,17   37,17 37,18 38,18 38,19 " fill="#575656"/>
  <polygon id="svg_5" points="3,19 3,20 4,20 4,21 5,21 5,22 3,22 3,21 2,21 2,20 1,20 1,19 2,19 2,18 3,18 3,17 5,17 5,18 4,18   4,19 " fill="#575656"/>
  <ellipse ry="6.782602" rx="6.782602" id="svg_6" cy="17.21739" cx="20.434787" stroke-width="1.5" stroke="#000" fill="#fff"/>
  <line stroke-linecap="null" stroke-linejoin="null" id="svg_7" y2="25.04347" x2="28.782606" y1="8.521746" x1="11.391317" fill-opacity="null" stroke-opacity="null" stroke-width="1.5" stroke="#000" fill="none"/>
 </g>
</svg>